<?xml version="1.0" encoding="UTF-8"?>
<svg xmlns="http://www.w3.org/2000/svg" version="1.1" viewBox="0 0 668 265">
  <defs>
    <style>
      .cls-1 {
        fill: #231f20;
      }

      .cls-2 {
        fill: #030303;
      }
    </style>
  </defs>
  <!-- Generator: Adobe Illustrator 28.6.0, SVG Export Plug-In . SVG Version: 1.2.0 Build 709)  -->
  <g>
    <g id="Layer_1">
      <g>
        <g>
          <path class="cls-1" d="M98.36,166.14h2.07l1.82,5.94,1.97-5.96h1.65l1.97,5.96,1.82-5.94h2.02l-2.99,8.83h-1.68l-1.98-5.74-1.98,5.74h-1.68l-2.99-8.83Z"/>
          <path class="cls-1" d="M118.73,166.14h6.61v1.72h-4.7v1.78h4.13v1.72h-4.13v1.84h4.76v1.72h-6.68v-8.77Z"/>
          <path class="cls-1" d="M132.77,166.14h3.42c2.76,0,4.66,1.89,4.66,4.36v.03c0,2.47-1.9,4.38-4.66,4.38h-3.42v-8.77ZM136.19,173.17c1.58,0,2.64-1.07,2.64-2.62v-.03c0-1.55-1.06-2.64-2.64-2.64h-1.49v5.29h1.49Z"/>
          <path class="cls-1" d="M148.21,166.14h3.42c2.76,0,4.66,1.89,4.66,4.36v.03c0,2.47-1.9,4.38-4.66,4.38h-3.42v-8.77ZM151.63,173.17c1.58,0,2.64-1.07,2.64-2.62v-.03c0-1.55-1.06-2.64-2.64-2.64h-1.49v5.29h1.49Z"/>
          <path class="cls-1" d="M163.73,166.14h1.93v8.77h-1.93v-8.77Z"/>
          <path class="cls-1" d="M173.5,166.14h1.78l4.11,5.4v-5.4h1.9v8.77h-1.64l-4.25-5.58v5.58h-1.9v-8.77Z"/>
          <path class="cls-1" d="M188.65,170.55v-.03c0-2.49,1.94-4.54,4.6-4.54,1.58,0,2.53.43,3.44,1.2l-1.22,1.47c-.68-.56-1.28-.89-2.29-.89-1.4,0-2.52,1.24-2.52,2.73v.03c0,1.6,1.1,2.78,2.66,2.78.7,0,1.33-.18,1.82-.53v-1.25h-1.94v-1.67h3.81v3.81c-.9.76-2.14,1.39-3.75,1.39-2.73,0-4.61-1.92-4.61-4.51Z"/>
          <path class="cls-1" d="M213.9,166.14h3.42c2.76,0,4.66,1.89,4.66,4.36v.03c0,2.47-1.9,4.38-4.66,4.38h-3.42v-8.77ZM217.32,173.17c1.58,0,2.64-1.07,2.64-2.62v-.03c0-1.55-1.07-2.64-2.64-2.64h-1.49v5.29h1.49Z"/>
          <path class="cls-1" d="M229.34,166.14h6.61v1.72h-4.7v1.78h4.13v1.72h-4.13v1.84h4.76v1.72h-6.68v-8.77Z"/>
          <path class="cls-1" d="M242.98,170.55v-.03c0-2.49,1.88-4.54,4.57-4.54,1.65,0,2.64.55,3.46,1.35l-1.23,1.42c-.68-.61-1.37-.99-2.24-.99-1.48,0-2.54,1.23-2.54,2.73v.03c0,1.5,1.04,2.76,2.54,2.76,1,0,1.62-.4,2.31-1.03l1.23,1.24c-.9.96-1.9,1.57-3.6,1.57-2.58,0-4.5-1.99-4.5-4.51Z"/>
          <path class="cls-1" d="M257.62,170.55v-.03c0-2.49,1.97-4.54,4.67-4.54s4.65,2.02,4.65,4.51v.03c0,2.49-1.97,4.54-4.67,4.54s-4.65-2.02-4.65-4.51ZM264.92,170.55v-.03c0-1.5-1.1-2.76-2.66-2.76s-2.63,1.23-2.63,2.73v.03c0,1.5,1.1,2.76,2.66,2.76s2.63-1.23,2.63-2.73Z"/>
          <path class="cls-1" d="M274.3,166.14h4.01c1.11,0,1.98.31,2.56.89.49.49.75,1.18.75,2v.02c0,1.42-.76,2.31-1.88,2.72l2.14,3.13h-2.25l-1.88-2.81h-1.52v2.81h-1.93v-8.77ZM278.18,170.4c.94,0,1.48-.5,1.48-1.24v-.03c0-.83-.58-1.25-1.52-1.25h-1.92v2.52h1.95Z"/>
          <path class="cls-1" d="M329.85,170.55v-.03c0-2.49,1.88-4.54,4.57-4.54,1.65,0,2.64.55,3.46,1.35l-1.23,1.42c-.68-.61-1.37-.99-2.24-.99-1.48,0-2.54,1.23-2.54,2.73v.03c0,1.5,1.04,2.76,2.54,2.76,1,0,1.62-.4,2.31-1.03l1.23,1.24c-.9.96-1.9,1.57-3.6,1.57-2.58,0-4.5-1.99-4.5-4.51Z"/>
          <path class="cls-1" d="M344.49,170.55v-.03c0-2.49,1.97-4.54,4.67-4.54s4.65,2.02,4.65,4.51v.03c0,2.49-1.97,4.54-4.67,4.54s-4.65-2.02-4.65-4.51ZM351.79,170.55v-.03c0-1.5-1.1-2.76-2.66-2.76s-2.63,1.23-2.63,2.73v.03c0,1.5,1.1,2.76,2.66,2.76s2.63-1.23,2.63-2.73Z"/>
          <path class="cls-1" d="M361.17,166.14h1.78l4.11,5.4v-5.4h1.9v8.77h-1.64l-4.25-5.58v5.58h-1.9v-8.77Z"/>
          <path class="cls-1" d="M376.32,170.55v-.03c0-2.49,1.88-4.54,4.57-4.54,1.65,0,2.64.55,3.46,1.35l-1.23,1.42c-.68-.61-1.37-.99-2.24-.99-1.48,0-2.54,1.23-2.54,2.73v.03c0,1.5,1.04,2.76,2.54,2.76,1,0,1.62-.4,2.31-1.03l1.23,1.24c-.9.96-1.9,1.57-3.6,1.57-2.58,0-4.5-1.99-4.5-4.51Z"/>
          <path class="cls-1" d="M391.59,166.14h6.61v1.72h-4.7v1.78h4.13v1.72h-4.13v1.84h4.76v1.72h-6.68v-8.77Z"/>
          <path class="cls-1" d="M405.63,166.14h3.58c2.09,0,3.36,1.24,3.36,3.03v.02c0,2.03-1.58,3.08-3.54,3.08h-1.47v2.63h-1.93v-8.77ZM409.09,170.56c.96,0,1.53-.58,1.53-1.33v-.03c0-.86-.6-1.33-1.57-1.33h-1.49v2.68h1.53Z"/>
          <path class="cls-1" d="M421.68,167.92h-2.67v-1.78h7.27v1.78h-2.67v6.99h-1.93v-6.99Z"/>
          <path class="cls-1" d="M474.38,173.63l1.14-1.37c.79.65,1.62,1.07,2.62,1.07.79,0,1.27-.31,1.27-.83v-.03c0-.49-.3-.74-1.77-1.11-1.77-.45-2.91-.94-2.91-2.68v-.02c0-1.59,1.28-2.64,3.07-2.64,1.28,0,2.37.4,3.26,1.12l-1,1.45c-.78-.54-1.54-.86-2.28-.86s-1.13.34-1.13.76v.03c0,.58.38.76,1.89,1.15,1.78.46,2.78,1.1,2.78,2.63v.03c0,1.74-1.33,2.72-3.22,2.72-1.33,0-2.67-.46-3.72-1.4Z"/>
          <path class="cls-1" d="M490.49,167.92h-2.67v-1.78h7.27v1.78h-2.67v6.99h-1.93v-6.99Z"/>
          <path class="cls-1" d="M504.68,171.45l-3.37-5.31h2.25l2.09,3.52,2.13-3.52h2.19l-3.37,5.27v3.5h-1.93v-3.46Z"/>
          <path class="cls-1" d="M516.82,166.14h1.93v7.02h4.37v1.75h-6.3v-8.77Z"/>
          <path class="cls-1" d="M530.31,166.14h1.93v8.77h-1.93v-8.77Z"/>
          <path class="cls-1" d="M540.07,166.14h1.78l4.11,5.4v-5.4h1.9v8.77h-1.64l-4.25-5.58v5.58h-1.9v-8.77Z"/>
          <path class="cls-1" d="M555.22,170.55v-.03c0-2.49,1.94-4.54,4.6-4.54,1.58,0,2.53.43,3.45,1.2l-1.22,1.47c-.68-.56-1.28-.89-2.29-.89-1.4,0-2.52,1.24-2.52,2.73v.03c0,1.6,1.1,2.78,2.66,2.78.7,0,1.33-.18,1.82-.53v-1.25h-1.94v-1.67h3.81v3.81c-.9.76-2.14,1.39-3.75,1.39-2.73,0-4.61-1.92-4.61-4.51Z"/>
        </g>
        <circle class="cls-1" cx="307.7" cy="171.44" r="1.35"/>
        <circle class="cls-1" cx="452.74" cy="171.44" r="1.35"/>
      </g>
      <g>
        <path d="M336.87,131.41c5.62-13.17,10.83-25.44,16.08-37.68,3.03-7.07,3.06-7.06,11.27-6.1v54.7h-8.38v-48.22c-.41-.1-.83-.19-1.24-.29-7.01,16.36-14.03,32.73-21.04,49.09l-1.41-.09c-7.06-16.47-14.11-32.95-21.17-49.42-.35.04-.71.08-1.06.12v48.3c-.37,0-.75-.01-1.12-.02v-54.64c1.86,0,3.61,0,5.44.06,2.93.1,4.23.88,5.32,3.54,4.95,12.09,10.14,24.08,15.25,36.1.49,1.16,1.04,2.29,2.07,4.54Z"/>
        <path d="M131.64,142.55h-8.2v-26.92h-23.4v26.74h-8.6v-54.9h8.32v26.05h23.47v-25.96h8.41v54.98Z"/>
        <path d="M524.32,115.73v26.64h-8.38v-54.77h8.25v25.85h23.73v-25.92h8.41v54.81h-8.21v-26.61h-23.79Z"/>
        <path d="M371.88,87.48h8.5c.1,1.52.27,3.01.28,4.5.03,10.51-.06,21.03.06,31.54.03,2.96.26,6,1.01,8.84,1.66,6.32,6.11,9.51,12.46,9.45,6.18-.06,10.77-3.54,12.23-9.78.71-3.01.92-6.18.95-9.28.11-11.62.04-23.24.04-35.16h8.44c.09,1.21.28,2.56.28,3.9.02,10.51.07,21.03,0,31.54-.09,12.3-5.29,18.38-17.54,19.81-4.29.5-8.84.23-13.08-.61-8.04-1.59-13.15-7.28-13.5-15.91-.51-12.75-.13-25.53-.13-38.83Z"/>
        <path d="M276.89,114.95c0,6.16.18,12.12-.06,18.06-.17,4.41-4.33,8.29-9.6,9.58-13.12,3.2-26.22-4.09-29.32-17.35-1.41-6.05-1.64-12.81-.53-18.91,2.73-15.1,16.98-23.31,31.57-18.64,2.85.91,5.51,3.38,7.4,5.81.76.98-.17,4.68-1.43,5.52-2.13,1.42-4.31.03-5.2-2.6-.09-.27-.23-.52-.33-.78-3.23-8.54-10.37-10.18-16.81-3.53-6.88,7.11-7.8,16.24-7.02,25.47.36,4.3,1.46,8.83,3.46,12.6,1.76,3.31,4.79,6.51,8.06,8.33,7.28,4.06,11.24,1.4,11.24-6.74,0-5.08,0-10.15,0-15.83h-11.1l.03-.97h19.64Z"/>
        <path d="M229.64,87.7v55.03c-2.13,0-4.08.05-6,.05-3.03,0-4.32-.91-5.61-3.32-7.93-14.77-16-29.47-24.03-44.19-.67-1.22-1.38-2.41-3.04-3.49v50.15c-.35,0-.69,0-1.04-.01v-53.9c7.31-2.19,9.27-1.4,12.79,5.03,8.22,15.06,16.46,30.12,25.63,45.08v-50.43c.43,0,.86,0,1.3,0Z"/>
        <path d="M70.36,142.6h-8.49v-53.9h-17.36v-1.08h43.16v.79h-17.3v54.19Z"/>
        <path d="M615.15,142.44v-54.81h8.34v54.81h-8.34Z"/>
        <path d="M476.1,87.41h7.86v55.03h-7.86v-55.03Z"/>
        <path class="cls-2" d="M422.42,114.94c-.07-5.45.83-10.72,3.12-15.67,4.04-8.72,11.9-13.34,22.04-12.74,9.52.57,16.31,5.26,19.71,14.29,3.04,8.06,3.31,16.32,1.09,24.64-3.09,11.56-10.98,17.81-22.31,17.77-11.39-.04-19.53-6.66-22.47-18.2-.85-3.32-1.09-6.7-1.18-10.09ZM457.89,97.8c-2.13-5.26-5.14-9.55-11.54-9.66-6.4-.12-9.92,3.93-11.86,9.24-4.27,11.72-4.28,23.62.17,35.31,1.97,5.19,5.54,9,11.65,8.94,6.17-.06,9.28-4.18,11.42-9.27,2.34-5.58,2.87-11.5,2.9-18.17-.07-5.13-.52-10.91-2.74-16.39Z"/>
        <path d="M137.18,142.3l-.66-.33s12.82-35.33,18.6-52.09c.98-2.85,2.85-2.8,4.95-2.56,2.27.26,5.04-1.31,6.34,2.42,5.93,17,12.48,34.97,18.52,51.92.18.5.17.78-.21,1.06-2.17.07-4.22.13-6.01-.11-1.37-.18-3.06-1.4-3.56-2.58-1.88-4.43-3.53-8.98-4.87-13.6-1.05-3.65-2.71-5.38-6.83-4.95-4.35.46-8.81.32-13.19.03-3.49-.23-5.44.74-6.39,4.36-1.15,4.38-2.89,8.6-4.41,12.88-.45,1.27-1.02,2.51-1.53,3.76-.25-.07-.5-.15-.75-.22ZM146.28,119.98h21.63c-3.59-10.11-7.02-19.75-10.84-30.48-3.8,10.73-7.2,20.33-10.79,30.48Z"/>
        <path d="M562.13,142.3l-.66-.33s12.82-35.33,18.6-52.09c.98-2.85,2.85-2.8,4.95-2.56,2.27.26,5.04-1.31,6.34,2.42,5.93,17,12.48,34.97,18.52,51.92.18.5.17.78-.21,1.06-2.17.07-4.22.13-6.01-.11-1.37-.18-3.06-1.4-3.56-2.58-1.88-4.43-3.53-8.98-4.87-13.6-1.05-3.65-2.71-5.38-6.83-4.95-4.35.46-8.81.32-13.19.03-3.49-.23-5.44.74-6.39,4.36-1.15,4.38-2.89,8.6-4.41,12.88-.45,1.27-1.02,2.51-1.53,3.76-.25-.07-.5-.15-.75-.22ZM571.23,119.98h21.63c-3.59-10.11-7.02-19.75-10.84-30.48-3.8,10.73-7.2,20.33-10.79,30.48Z"/>
      </g>
    </g>
  </g>
</svg>